<svg width="91" height="88" viewBox="0 0 91 88" fill="none" xmlns="http://www.w3.org/2000/svg">
<path d="M56.2313 25.1706C49.2157 19.5612 38.9222 20.6862 33.2822 27.6745L3.47025 64.6435C3.09916 65.1044 3.02103 65.7373 3.26322 66.2763C3.50931 66.8154 4.04056 67.1669 4.63042 67.1865C5.74762 67.2255 6.84522 67.2451 7.93122 67.2451C31.8372 67.2451 47.6382 58.1045 56.8062 50.2371C60.4429 47.116 62.482 42.5574 62.396 37.7331C62.314 32.819 60.064 28.2448 56.2319 25.1741L56.2313 25.1706ZM51.7196 44.3036C45.6337 49.5302 38.5045 53.4755 30.5355 56.0416C30.3754 56.0924 30.2152 56.1158 30.059 56.1158C29.3988 56.1158 28.7856 55.6939 28.5707 55.0299C28.3051 54.2096 28.7582 53.3268 29.5785 53.0651C37.1488 50.6315 43.9105 46.8854 49.6805 41.9321C51.2625 40.5727 51.4735 38.8305 51.4578 37.9126C51.4304 36.2681 50.6765 34.7368 49.3953 33.7095C48.7234 33.1705 48.614 32.1861 49.1531 31.5142C49.6961 30.8423 50.6765 30.7291 51.3484 31.272C53.3562 32.8814 54.5359 35.2837 54.5828 37.8618C54.6062 39.3266 54.2664 42.1157 51.7156 44.3032L51.7196 44.3036ZM90.5906 16.2766C90.4734 15.7336 90.0788 15.2922 89.5515 15.1204L79.9734 11.9759C76.8836 3.972 68.8994 -0.876096 60.2663 0.131904C52.0319 1.08893 45.1724 7.7374 43.9574 15.9439C43.8245 16.8384 43.762 17.7291 43.7581 18.6119C44.5081 18.526 45.2698 18.4752 46.0393 18.4752C50.4416 18.4752 54.7541 19.9869 58.1873 22.7291C62.7498 26.3814 65.4256 31.8268 65.5271 37.6741C65.6248 43.4319 63.1912 48.8731 58.8474 52.6041C49.406 60.7057 32.9094 70.3661 7.93743 70.3661C7.84368 70.3661 7.74212 70.3622 7.64446 70.3622L0.30466 80.3231C-0.20315 81.0145 -0.0625303 81.9872 0.62497 82.4989L6.87497 87.1864C7.15231 87.3973 7.48435 87.4989 7.81247 87.4989C8.15622 87.4989 8.50388 87.3856 8.78903 87.1551L23.984 74.9991H43.75C64.426 74.9991 81.25 58.1791 81.25 37.4991V25.8431L90.1172 17.7611C90.5274 17.3861 90.711 16.8236 90.5899 16.2806L90.5906 16.2766ZM67.1886 18.7493C65.4659 18.7493 64.0636 17.347 64.0636 15.6243C64.0636 13.9016 65.4659 12.4993 67.1886 12.4993C68.9113 12.4993 70.3136 13.9016 70.3136 15.6243C70.3136 17.347 68.9113 18.7493 67.1886 18.7493ZM57.8135 85.9373C57.8135 86.8006 57.1143 87.4998 56.251 87.4998H37.501C36.6378 87.4998 35.9385 86.8006 35.9385 85.9373C35.9385 85.074 36.6378 84.3748 37.501 84.3748H40.626V78.1248H43.751V84.3748H50.001V77.6443C51.0596 77.4802 52.0987 77.2654 53.126 77.0232V84.3787H56.251C57.1143 84.3787 57.8135 85.0779 57.8135 85.9412V85.9373Z" fill="black"/>
</svg>
