<svg width="80" height="87" viewBox="0 0 80 87" fill="none" xmlns="http://www.w3.org/2000/svg">
<path d="M74.6088 2.5508C73.4877 1.1797 71.7807 0.628902 70.4682 1.211C69.8471 1.48053 68.4682 2.4219 68.8979 5.1993C69.0385 6.07039 69.4292 7.0196 69.8784 8.1095C71.3901 11.7579 73.8589 17.7579 70.2182 29.5975C67.7885 26.5389 61.5073 20.5467 49.8272 20.8475C40.2061 21.0975 36.2252 25.1561 34.3072 27.1092C34.1588 27.2576 33.9869 27.4295 33.8463 27.5701C33.815 27.5115 33.776 27.4491 33.7447 27.3905C33.5065 26.9608 33.2057 26.4217 32.7447 25.8593C31.8346 24.7695 30.6041 23.8905 30.0142 23.4999C29.3228 21.1015 28.2251 18.3515 26.7447 18.039C25.233 17.7304 23.3931 19.8007 22.0142 21.7695C20.7642 21.8476 17.5923 22.2382 14.733 24.1406C12.6236 23.5312 9.40493 22.9023 8.37363 24.3124C7.76425 25.1406 8.30332 28.5741 9.46343 30.5116C9.21343 31.66 8.78374 34.6913 10.1431 37.9608C7.30332 38.5702 2.71342 38.7811 1.78372 38.7225C1.75247 38.7225 1.73294 38.7108 1.7056 38.703C1.15482 38.6132 0.646995 38.9725 0.545395 39.5116C0.475082 39.9022 0.646955 40.2929 0.967275 40.5116C1.17821 40.6522 1.85789 40.7225 2.79537 40.7225C5.00627 40.7225 8.65478 40.3632 11.0845 39.7616C11.2759 40.0702 11.4829 40.371 11.7134 40.6718C9.98289 41.5233 7.74458 42.4999 6.45168 42.621C5.9009 42.6717 5.49074 43.1522 5.54152 43.6991C5.59231 44.2186 6.02199 44.6092 6.54152 44.6092H6.63137C8.47117 44.4491 11.3228 43.1287 13.0923 42.2186C14.1704 43.2694 15.5415 44.2694 17.2642 45.16C17.5259 47.3788 18.9048 55.379 25.565 62.32C32.2838 69.3317 34.3462 78.82 34.3462 80.511C34.3071 80.5501 34.268 80.6009 34.2173 80.6516C33.5766 81.3313 32.3892 82.593 32.897 84.8508C33.1352 85.9406 34.0454 86.6907 35.397 86.9212C35.686 86.9719 35.9985 86.9915 36.3188 86.9915C38.1586 86.9915 40.3383 86.1907 41.2485 84.7103C42.1274 83.2806 42.479 81.8822 42.6274 81.0619C43.5688 80.6634 44.6977 79.7416 44.8188 77.9603C44.8774 77.1204 44.4477 75.8509 43.6274 73.4798C42.2758 69.5814 40.229 63.6907 41.3188 59.6518C42.2993 56.0034 45.4907 55.2299 47.9985 55.2221C49.0883 55.2221 51.1274 55.4525 52.6391 56.9721C53.9789 58.3315 54.6391 60.4526 54.6 63.2729C54.5297 68.3432 51.9203 73.4449 50.9711 73.7609C49.7523 73.9796 48.85 75.1007 48.7406 76.5304C48.6312 77.8898 49.2797 79.0304 50.389 79.421C50.5101 79.46 50.6273 79.4991 50.7484 79.5421C50.4672 79.8506 50.2289 80.2217 50.0882 80.6319C49.8773 81.2217 49.7679 82.1514 50.4476 83.253C51.2484 84.5421 52.4476 85.2413 53.9085 85.1827C56.0374 85.1123 58.4085 83.3819 59.678 80.9835C59.9866 80.3936 60.7678 79.2647 61.7366 77.8351C66.9163 70.2843 78.9986 52.6751 75.6666 37.6941C76.7877 34.8738 84.2564 14.7641 74.6275 2.52205L74.6088 2.5508ZM27.6478 31.8278C27.4095 33.1676 26.1283 34.0661 24.7884 33.8395C24.14 33.7301 23.5696 33.3708 23.1868 32.8278C22.8079 32.2887 22.6673 31.6286 22.7767 30.9762C22.886 30.3278 23.2454 29.7574 23.7962 29.3746C24.218 29.0855 24.7063 28.9254 25.2064 28.9254C25.347 28.9254 25.4954 28.9371 25.6361 28.9644C26.9759 29.2027 27.8744 30.4839 27.6478 31.8238L27.6478 31.8278ZM17.1008 31.8512C17.7493 31.9606 18.3196 32.32 18.7024 32.8629C19.0813 33.402 19.222 34.0621 19.1126 34.7145C19.0032 35.363 18.6438 35.9333 18.1009 36.3161C17.5618 36.695 16.9017 36.8357 16.2493 36.7263C15.6008 36.6169 15.0305 36.2575 14.6477 35.7146C14.2688 35.1755 14.1281 34.5154 14.2375 33.863C14.3469 33.2146 14.7063 32.6442 15.257 32.2614C15.6789 31.9723 16.1672 31.8122 16.6672 31.8122C16.8078 31.8122 16.9563 31.8239 17.0969 31.8512H17.1008Z" fill="black"/>
</svg>
