<svg width="88" height="96" viewBox="0 0 88 96" fill="none" xmlns="http://www.w3.org/2000/svg">
<path d="M86.8999 22.3C86.3999 21.3 85.7999 20.2 85.1999 19.7C82.8999 17.8 79.1999 17.6 77.9999 14.3C77.6999 13.6 77.3999 12.9 76.9999 12.1C78.2999 11.3 79.1999 9.8 79.1999 8.1C79.1999 5.5 77.0999 3.4 74.4999 3.4C74.3999 3.4 74.2999 3.4 74.1999 3.4C73.4999 1.7 71.7999 0.5 69.7999 0.5C68.5999 0.5 67.4999 1 66.5999 1.7C65.8999 1.3 65.0999 1.1 64.2999 1.1C61.8999 1.1 59.9999 2.8 59.6999 5.1C57.7999 5.7 56.3999 7.5 56.3999 9.6C56.3999 11.7 57.7999 13.4 59.6999 14.1C52.6999 24.4 57.7999 39.4 36.3999 39.1C21.8999 38.9 12.5999 32.6 7.7999 27.9C6.2999 26.5 3.7999 27.5 3.6999 29.5C3.5999 30.5 3.5999 31.5 3.4999 32.6C1.9999 33.5 0.899902 35.1 0.899902 37C0.899902 38.4 1.4999 39.7 2.3999 40.6C1.4999 41.5 0.899902 42.8 0.899902 44.2C0.899902 45.8 1.6999 47.3 2.8999 48.2C2.1999 49.1 1.7999 50.1 1.7999 51.3C1.7999 53.8 3.5999 55.9 5.8999 56.4C5.7999 56.7 5.7999 57.1 5.7999 57.5C5.7999 60.4 8.0999 62.7 10.9999 62.7C12.4999 64.2 14.1999 65.6 16.2999 67C20.7999 70 25.5999 72.8 31.1999 74.6C32.9999 76.3 35.0999 77.7 37.5999 78.7C38.1999 83 38.7999 87 38.4999 87.7C38.0999 88.8 36.3999 90.4 35.6999 90.9C35.5999 91 35.4999 91.2 35.5999 91.4C35.6999 91.6 35.7999 91.7 35.9999 91.7L39.4999 91.4C40.2999 92.5 42.2999 95.4 43.3999 95.5C43.3999 95.5 43.3999 95.5 43.4999 95.5C43.5999 95.5 43.7999 95.4 43.8999 95.3C44.3999 94.5 44.2999 92.8 44.2999 92C44.6999 91.9 45.7999 91.9 48.4999 92C52.3999 92.3 53.0999 91.8 53.1999 91.3C53.3999 90.6 52.4999 90.1 51.5999 89.7C50.5999 89.2 49.2999 89 47.9999 88.8C45.9999 88.5 43.8999 88.1 43.0999 86.9C42.5999 86 42.1999 83.1 42.0999 80C43.7999 80.4 45.6999 80.6 47.5999 80.6C48.6999 80.6 49.8999 80.5 50.9999 80.4C53.3999 82.8 56.1999 85.6 56.7999 86.3C57.3999 87 57.1999 87.5 56.7999 88.2C56.5999 88.6 56.3999 89 56.2999 89.4C56.0999 90.4 56.5999 91.6 57.2999 92C57.7999 92.2 58.2999 92.1 58.6999 91.6C59.0999 91.1 59.5999 91.4 60.9999 92.4C61.2999 92.6 61.6999 92.9 62.0999 93.1C63.8999 94.3 67.9999 95.2 68.1999 95.3H68.2999C68.3999 95.3 68.5999 95.2 68.6999 95.1C68.7999 94.9 68.7999 94.7 68.5999 94.6L66.0999 91.9H74.3999C74.5999 91.9 74.6999 91.8 74.7999 91.6C74.8999 91.4 74.7999 91.3 74.6999 91.1C74.5999 91 73.2999 89.8 71.4999 89.3C69.8999 88.8 64.6999 88.4 63.5999 88.4C61.2999 85.6 58.3999 82.1 56.0999 79.3C60.0999 77.9 63.4999 75.5 65.7999 72.6C65.8999 72.6 65.9999 72.5 66.0999 72.5C91.2999 64.1 75.1999 34.3 75.0999 27.5C74.9999 24.1 81.7999 24.2 85.4999 24.5C86.5999 24.5 87.3999 23.4 86.8999 22.3ZM65.0999 50C63.8999 51.9 53.8999 67.6 44.7999 67.6C44.4999 67.6 44.0999 67.6 43.7999 67.5C40.3999 67 37.7999 64.4 35.9999 59.8C31.6999 59.8 28.5999 56.1 27.4999 53.8C26.8999 52.6 27.3999 51.2 28.5999 50.7C29.7999 50.1 31.1999 50.6 31.6999 51.8C31.7999 52 33.7999 55.9 36.9999 55.1C38.1999 54.8 39.4999 55.5 39.8999 56.7C40.6999 59.4 42.0999 62.7 44.3999 63C48.8999 63.6 56.8999 54.4 61.0999 47.7C61.7999 46.6 63.1999 46.3 64.2999 46.9C65.3999 47.4 65.7999 48.9 65.0999 50ZM72.9999 18.6C71.6999 18.6 70.5999 17.5 70.5999 16.2C70.5999 14.9 71.6999 13.8 72.9999 13.8C74.2999 13.8 75.3999 14.9 75.3999 16.2C75.3999 17.5 74.3999 18.6 72.9999 18.6Z" fill="black"/>
</svg>
