<svg width="76" height="84" viewBox="0 0 76 84" fill="none" xmlns="http://www.w3.org/2000/svg">
<path d="M58.258 78.6251L55.2307 78.7462L54.969 72.961C56.0979 72.5703 57.1682 72.1289 58.1174 71.6329L58.258 78.6251ZM21.891 81.629C22.0433 82.6251 22.8793 83.3478 23.8832 83.3478H25.473C26.4613 83.3478 27.2933 82.6408 27.4574 81.6681L27.5277 81.2345L21.8207 81.1642C21.8442 81.3204 21.8676 81.4688 21.891 81.629ZM58.297 80.6251L55.3204 80.7423L55.3243 80.8516C55.3517 81.4649 55.8556 81.9454 56.4688 81.9454H58.4415C58.3673 81.6486 58.3126 81.3478 58.3048 81.0314L58.297 80.6251ZM21.801 61.5471C22.0041 61.1096 22.4885 60.8752 22.9572 60.9963C23.426 61.1135 23.7385 61.551 23.7072 62.0315C23.5666 64.1448 24.5002 66.0784 26.5549 67.926C28.2033 66.8166 29.3713 64.5666 30.0276 61.2112C30.1096 60.7971 30.4456 60.4768 30.8635 60.4143C31.2854 60.3518 31.6956 60.5628 31.8947 60.9378L33.0041 63.0394C34.633 60.8871 34.84 57.9886 33.6799 54.2542C31.2072 54.8245 28.7111 55.1174 26.2658 55.1174C23.7033 55.1174 21.2072 54.7971 18.8556 54.1721C17.8439 58.6877 18.3947 61.8049 20.6681 63.9924L21.801 61.5471ZM15.0979 50.6561C6.676 45.7733 5.0819 38.8401 10.1135 28.7651C12.6604 22.3862 15.8401 17.8311 19.8362 14.8511C27.262 9.85889 36.8912 10.3433 43.8132 16.0659C49.5046 20.769 53.7898 30.0039 48.7546 41.7809C46.9187 45.7575 42.3444 49.3434 36.5206 51.3707C29.0987 53.9488 21.0749 53.6717 15.0979 50.6561ZM37.1719 30.6051C37.7422 29.9918 38.6016 29.6715 39.4844 29.8395C40.8594 30.0973 41.7617 31.4176 41.5039 32.7926C41.2461 34.1676 39.9258 35.0699 38.5508 34.8121C38.4453 34.7925 38.3477 34.7535 38.2461 34.7222C38.6094 35.0425 39.0274 35.2535 39.4883 35.273C40.918 35.3355 42.1524 33.7144 42.2422 31.6558C42.3321 29.5933 41.25 27.8706 39.8203 27.8081C38.5898 27.7534 37.5078 28.9527 37.1719 30.6051ZM18.7889 34.3863C20.2303 34.4488 21.4725 32.816 21.5623 30.7418C21.6561 28.6637 20.5623 26.9293 19.1209 26.8668C17.824 26.8082 16.6951 28.1324 16.4139 29.9098C16.9686 29.1363 17.9334 28.7067 18.9295 28.8942C20.3045 29.152 21.2068 30.4723 20.949 31.8473C20.6912 33.2184 19.3709 34.1246 17.9959 33.8668C17.7459 33.8199 17.5193 33.7262 17.3045 33.6168C17.7147 34.0699 18.2225 34.3589 18.7889 34.3863ZM27.0741 45.6673C27.7733 47.5228 28.871 48.8157 30.1835 49.2454C30.4335 49.3274 30.7694 49.4016 31.1601 49.4016C31.9804 49.4016 33.0546 49.0891 34.1874 47.8938C34.5663 47.4954 34.5506 46.8586 34.1483 46.4797C33.7499 46.1008 33.1171 46.1165 32.7342 46.5188C32.0311 47.261 31.3826 47.5383 30.7967 47.3469C29.8905 47.05 28.8279 45.55 28.4139 42.8742C29.1873 42.3977 29.7889 41.8625 30.2147 41.2726C30.867 40.3742 30.4022 39.1164 29.3475 38.7687C28.0897 38.3547 26.8827 38.3078 25.7225 38.5734C24.6795 38.8156 24.1639 40.0031 24.6717 40.9406C25.0428 41.6203 25.5623 42.2218 26.2694 42.7218C25.3124 45.3038 23.6952 46.8038 22.5897 46.8976C21.9647 46.9601 21.4256 46.5578 20.9803 45.7296C20.7186 45.2452 20.1131 45.0616 19.6248 45.3234C19.1404 45.5851 18.9568 46.1905 19.2186 46.6789C20.3475 48.7766 21.9295 48.9641 22.7655 48.8898C24.3319 48.7569 25.8983 47.5384 27.0741 45.6673ZM38.2421 81.8553C38.4218 82.8201 39.2577 83.5037 40.246 83.4998L42.0702 83.4763C43.1093 83.4607 43.9569 82.6717 44.0468 81.6404L44.0663 81.4334L38.164 81.4295L38.2421 81.8553ZM60.3041 80.992C60.3236 82.0154 61.1088 82.8553 62.1244 82.9529L65.8471 83.3045C66.808 83.3904 67.7026 82.781 67.9721 81.8436C68.0346 81.6287 68.0854 81.4256 68.1479 81.2108L60.2846 80.1405L60.3041 80.992ZM51.1713 41.094C50.9877 41.5901 50.7924 42.0862 50.5776 42.5901C48.476 47.1409 43.5932 51.0198 37.1716 53.2581C36.6559 53.4378 36.1404 53.5979 35.6208 53.7542C37.1677 58.8011 36.445 62.7503 33.4567 65.5042C33.2301 65.7151 32.9176 65.805 32.609 65.7542C32.3043 65.6995 32.0387 65.512 31.8942 65.2347L31.3317 64.1644C30.3707 67.0941 28.8786 69.0706 26.8786 70.0472C26.7379 70.1175 26.5895 70.1487 26.4411 70.1487C26.2145 70.1487 25.9879 70.0706 25.8082 69.9222C24.0738 68.5003 22.8863 66.973 22.2496 65.348L21.9411 66.0198C21.8161 66.2933 21.5739 66.4925 21.2848 66.5667C20.9957 66.6409 20.6871 66.5823 20.445 66.4066C20.3942 66.3714 20.3551 66.3284 20.3043 66.2933C20.4254 69.9495 20.8278 74.1878 21.5309 79.1523L27.8629 79.2304L29.0035 72.3359C29.0582 72.0156 29.2614 71.7382 29.5582 71.5976C29.8551 71.457 30.1989 71.4687 30.4801 71.6289C31.1911 72.0273 33.7418 72.2109 35.4489 71.9726C35.9724 71.9062 36.4684 72.2578 36.5661 72.7812L37.8005 79.4257H44.2419L44.7536 73.4413C44.8005 72.9179 45.2614 72.4804 45.7653 72.5273C50.6989 72.6366 56.0033 70.8007 58.5153 69.0664C58.82 68.8554 59.2146 68.832 59.5387 69C59.8669 69.1679 60.0778 69.5 60.0856 69.871L60.2536 78.1171L68.6989 79.2655C73.238 62.4725 73.0544 51.0625 68.1286 45.3595C64.7927 41.504 59.0814 40.0705 51.1713 41.094ZM69.7613 44.2151C71.0816 45.7893 72.0933 47.6878 72.7925 49.9182C75.2652 46.4612 76.0581 42.3557 75.148 37.6722C73.9175 40.2894 72.3824 42.8127 69.7613 44.2151ZM16.7493 3.46511C17.2102 3.00808 17.8509 2.56277 18.7181 2.09011C17.6634 1.62136 16.4759 1.25027 15.1165 1.01981C15.7063 1.79715 16.2454 2.61361 16.7493 3.46511ZM20.1048 12.3323C21.9798 11.2581 23.9603 10.4925 25.9837 10.012C25.5228 9.00421 25.0071 8.01981 24.4017 7.08621C22.3548 7.69168 20.6908 8.55101 19.4525 9.64871C19.4447 9.65652 19.4291 9.66043 19.4213 9.66824C19.6791 10.5237 19.9056 11.4143 20.1048 12.3323ZM36.6398 10.1643C38.6906 10.7112 40.6789 11.5627 42.546 12.7151C42.714 11.8557 42.9249 10.9651 43.1749 10.0549C43.1593 10.0432 43.1398 10.0393 43.128 10.0276C41.421 8.51976 39.7296 7.63696 37.9718 7.32056C37.4601 8.18384 37.0304 9.14861 36.6398 10.1643ZM46.7488 0.539307C45.741 0.828367 44.8191 1.21509 43.9402 1.65651C44.5847 1.97292 45.1863 2.34792 45.7449 2.80491C46.0613 2.06663 46.3894 1.31661 46.7488 0.539307ZM51.3191 22.1723C58.0925 22.1723 60.5222 20.0785 61.6351 18.2114C55.7953 13.5981 51.0221 13.0161 47.0801 16.4067C48.5996 18.0356 49.9512 19.9809 50.9746 22.2075C51.0332 22.1958 51.0879 22.1724 51.1543 22.1724C51.2168 22.1802 51.2644 22.1723 51.3191 22.1723ZM20.8071 3.27431C20.8032 3.27431 20.8032 3.27821 20.7993 3.28212C20.2016 3.56337 18.3774 4.41492 17.8696 5.23522C17.8383 5.286 17.7993 5.32506 17.7602 5.36803C18.1157 6.11022 18.4438 6.87973 18.7446 7.68053C19.9555 6.74694 21.4321 5.98523 23.1548 5.40713C22.479 4.61807 21.7017 3.90321 20.8071 3.27431ZM41.8111 2.954C40.8306 3.68838 39.9556 4.5517 39.1783 5.5478C40.7603 5.96968 42.2838 6.7705 43.7877 7.9775C44.1236 6.9463 44.5065 5.8759 44.94 4.7744C44.0533 3.91502 43.0338 3.3135 41.8267 2.9619C41.8189 2.95799 41.815 2.954 41.8111 2.954ZM10.7561 21.97C10.9045 21.9075 11.0569 21.8919 11.2053 21.9036C12.592 19.513 14.1272 17.4505 15.8342 15.7161C10.0998 12.0013 5.22522 14.6653 0.803223 18.4114C3.63132 22.4934 6.8069 23.6223 10.7561 21.97Z" fill="black"/>
</svg>
