<svg width="92" height="80" viewBox="0 0 92 80" fill="none" xmlns="http://www.w3.org/2000/svg">
<path d="M91.1841 69.133C90.7779 70.3049 88.9185 72.3908 81.4575 73.883C84.2895 71.1018 86.6372 67.258 87.1684 62.098C87.9301 63.2191 88.8676 64.473 90.0161 65.7464C91.1528 66.9847 91.5395 68.1252 91.1841 69.133Z" fill="black"/>
<path d="M25.4648 73.758H16.7578C17.3398 72.4377 18.668 70.2111 21.2422 68.9572C22.4219 70.8752 23.828 72.4884 25.4648 73.758Z" fill="black"/>
<path d="M18.004 52.32C14.3946 52.0622 12.2735 53.6364 12.1759 53.7184C12.0939 53.7848 12.0314 53.8629 11.9806 53.945C11.2696 55.1989 10.3634 55.9294 9.47278 55.9802C8.97278 56.0114 8.66419 55.7849 8.53528 55.6052C7.6134 54.2536 7.27358 53.113 7.56262 52.1872C7.90246 51.031 9.21492 50.3786 9.95712 50.0856C12.9024 48.9294 15.0391 47.3512 16.3009 46.2418C17.3751 47.6324 17.9064 49.6013 18.004 52.32Z" fill="black"/>
<path d="M19.2659 4.211C16.9534 5.2852 14.6526 6.7501 12.4221 8.5391C11.8049 6.1133 12.1799 3.7227 12.8752 2.3399C13.2307 1.63678 13.6838 1.168 14.1369 1.0196C15.4142 0.593816 17.7776 1.88288 19.2659 4.211Z" fill="black"/>
<path d="M72.6249 27.844C69.4374 25.3674 65.4374 23.6448 60.7619 22.719C56.5236 21.9065 51.8791 16.3206 48.5119 11.375C47.5744 12.6953 45.8908 14.2578 43.2189 14.2578C42.7033 14.2578 42.1369 14.2109 41.5353 14.0781C41.0978 13.9804 40.8204 13.539 40.9181 13.1015C41.0157 12.664 41.4493 12.3867 41.8908 12.4843C45.3049 13.2343 47.0353 10.9374 47.7502 9.50774C48.1212 8.77337 48.3009 8.10934 48.383 7.68354C49.2736 2.86714 46.508 1.28905 46.3752 1.22265C44.0627 0.410145 41.5197 1.44921 38.9299 4.34765C37.1682 6.39845 36.051 8.62885 36.0315 8.66015C35.8362 9.0664 35.3518 9.23046 34.9456 9.01953C34.5588 8.82422 34.3792 8.33594 34.5901 7.92973C34.6213 7.8516 35.4807 6.14062 36.9221 4.25003C31.3713 2.70312 25.9341 3.04692 20.7381 5.30862C18.0037 6.48052 15.285 8.20703 12.6443 10.4531C12.613 10.5039 12.5779 10.5352 12.531 10.5664C5.47631 16.6094 1.30401 24.5544 0.687012 25.7734C0.702637 26.8164 1.04248 32.5468 5.52681 37.2964C6.30415 36.4683 7.29241 35.1948 7.82371 33.6987C8.40574 32.0229 8.30809 30.4956 7.49949 29.062C6.78855 27.7925 5.60499 26.6362 3.89009 25.5308C3.50337 25.2847 3.39009 24.7964 3.63228 24.4058C3.87447 24.0308 4.37447 23.9175 4.74948 24.1597C6.38228 25.2027 7.56588 26.3081 8.40568 27.5113L13.5541 23.8316C13.9096 23.5699 14.4096 23.6519 14.6713 24.0269C14.9291 24.3863 14.851 24.9058 14.4916 25.1675L9.19859 28.9448C9.86265 30.4409 9.96031 32.0542 9.47593 33.7651C10.9798 35.394 14.1673 37.4292 19.9449 35.2456C20.3668 35.1011 20.8199 35.312 20.9801 35.7339C21.1442 36.1558 20.9333 36.6128 20.5114 36.773C18.5036 37.523 16.7575 37.8355 15.238 37.8355C12.2107 37.8355 10.1403 36.6167 8.82778 35.3941C8.19497 36.648 7.38638 37.6871 6.71058 38.4214C8.31218 39.8355 10.2379 41.0425 12.5036 41.9878L12.9255 42.1636C14.238 42.7026 15.7067 43.3042 16.9372 44.5269L16.9684 44.5581C18.7965 46.3979 19.6559 49.1479 19.6403 53.2183C19.6403 53.8863 19.6091 54.6011 19.5427 55.3667C19.3161 58.2964 19.8825 63.2456 22.2458 67.5077C23.8317 70.371 25.9685 72.4882 28.5739 73.8358C30.3395 74.7655 32.3786 75.3358 34.6091 75.5311C36.6325 75.7108 41.406 75.6444 43.3474 75.5936C44.5779 73.8358 46.9724 71.9647 51.7771 71.7342C49.3982 69.3592 45.6755 64.2498 47.6052 56.5822C48.82 51.8127 54.4333 44.6842 64.3552 45.8092C64.7927 45.8561 65.1169 46.2663 65.0661 46.7038C65.0192 47.1569 64.5973 47.4694 64.1598 47.4186C55.277 46.3952 50.2578 52.7389 49.1758 56.9889C46.7305 66.6569 54.1094 71.6529 54.418 71.8639C54.7266 72.0592 54.8555 72.4498 54.7423 72.7936C54.629 73.153 54.336 73.3952 53.9337 73.3639C49.2735 73.1373 45.9884 74.3248 44.4845 76.8287C43.9845 77.6568 43.7735 78.4928 43.6759 79.0592H69.2149C69.9414 78.8795 74.168 77.7389 78.1485 74.7311C78.2305 74.5983 78.3594 74.5202 78.4883 74.4538C82.3906 71.4108 85.9492 66.5436 85.6602 59.0238C85.2462 49.1488 82.6716 35.704 72.6249 27.844ZM43.9769 9.56298C46.5824 6.19578 45.2074 4.41849 45.1449 4.35209C44.8675 4.00834 44.9183 3.49272 45.2425 3.21149C45.5824 2.91852 46.0863 2.95368 46.3753 3.29352C46.473 3.39117 48.723 6.07472 45.2581 10.5513C45.0941 10.7623 44.8519 10.8794 44.6253 10.8794C44.4456 10.8794 44.2699 10.813 44.1253 10.6997C43.7659 10.4263 43.7034 9.92234 43.9769 9.56298ZM26.2229 12.0708C28.3752 12.0708 30.1252 13.8286 30.1252 15.9966C30.1252 18.1607 28.3752 19.9341 26.2229 19.9341C24.0706 19.9341 22.3088 18.1607 22.3088 15.9966C22.3088 13.8286 24.0705 12.0708 26.2229 12.0708ZM21.6448 32.4968C21.2073 32.6257 20.7542 32.3835 20.6253 31.9421C20.4964 31.5202 20.7386 31.0632 21.1565 30.9343C22.9221 30.3991 26.6604 30.3171 28.2463 33.8835C28.426 34.3054 28.2463 34.778 27.8401 34.9577C27.7268 35.0046 27.6135 35.0397 27.5002 35.0397C27.1917 35.0397 26.9026 34.86 26.7737 34.5514C25.3675 31.3912 21.7893 32.4499 21.6448 32.4968ZM46.9728 46.6568C41.1955 53.4771 32.9888 54.9107 31.2928 55.1373C29.7069 56.7662 28.3162 57.2193 27.2303 57.2193C26.9061 57.2193 26.6131 57.1724 26.3553 57.106C24.8983 56.7662 23.9608 55.5904 23.6834 54.5982C23.3123 53.313 23.4724 52.106 24.1365 50.9849C25.9021 48.0552 30.7888 46.7193 32.1326 46.3951L37.6326 37.8326C37.8748 37.4576 38.3787 37.3443 38.7498 37.5865C39.1209 37.8326 39.2342 38.3365 38.992 38.7115L33.3123 47.567C33.199 47.7467 33.0076 47.8756 32.7928 47.9264C32.7264 47.9264 27.16 49.1139 25.5272 51.8326C25.0897 52.5513 24.992 53.3131 25.2342 54.1451C25.3787 54.6998 25.9451 55.3482 26.7381 55.5279C27.7889 55.8052 29.035 55.1841 30.3162 53.817C30.4451 53.6686 30.6209 53.5748 30.8162 53.5553C30.9138 53.5553 39.8318 52.5631 45.7222 45.5983C46.0113 45.2545 46.5308 45.2233 46.8706 45.5123C47.2143 45.8131 47.2462 46.3131 46.9728 46.6568Z" fill="black"/>
<path d="M28.5078 15.992C28.5078 17.2615 27.4883 18.3045 26.2266 18.3045C24.9649 18.3045 23.9297 17.2615 23.9297 15.992C23.9297 14.7225 24.9649 13.6951 26.2266 13.6951C27.4883 13.6951 28.5078 14.7224 28.5078 15.992Z" fill="black"/>
</svg>
