<svg width="84" height="62" viewBox="0 0 84 62" fill="none" xmlns="http://www.w3.org/2000/svg">
<path d="M83.5002 40.762V44.1097C83.5002 44.7699 82.965 45.305 82.3049 45.305H80.4455C79.7853 45.305 79.2502 44.7698 79.2502 44.1097V40.762C79.2502 40.1018 79.7854 39.5667 80.4455 39.5667H82.3049C82.9651 39.5667 83.5002 40.1019 83.5002 40.762ZM82.3049 14.852H80.4455C79.7853 14.852 79.2502 15.3872 79.2502 16.0473V19.3989C79.2502 20.0591 79.7854 20.5942 80.4455 20.5942H82.3049C82.9651 20.5942 83.5002 20.059 83.5002 19.3989V16.0473C83.5002 15.3871 82.965 14.852 82.3049 14.852ZM76.0471 61.125C76.7073 61.125 77.2424 60.5898 77.2424 59.9297V6.0427C77.2424 5.83176 77.1877 5.62472 77.0822 5.44113L74.3049 0.655934C73.844 -0.137036 72.6955 -0.137036 72.2346 0.655934L69.4573 5.43713C69.3519 5.62072 69.2972 5.82776 69.2972 6.0387V59.9257C69.2972 60.5859 69.8323 61.121 70.4925 61.121L76.0471 61.125ZM37.5511 44.113C37.5511 44.7732 38.0863 45.3083 38.7464 45.3083H45.2503C45.9105 45.3083 46.4456 44.7731 46.4456 44.113L46.4495 40.7614C46.4495 40.1012 45.9143 39.5661 45.2542 39.5661H38.7503C38.0901 39.5661 37.555 40.1013 37.555 40.7614L37.5511 44.113ZM3.5591 39.5661H1.6958C1.03564 39.5661 0.500501 40.1013 0.500501 40.7614V44.113C0.500501 44.7732 1.03566 45.3083 1.6958 45.3083H3.5552C4.21536 45.3083 4.7505 44.7731 4.7505 44.113L4.75441 40.7614C4.75441 40.1012 4.21924 39.5661 3.5591 39.5661ZM38.7501 20.5931H45.254C45.9142 20.5931 46.4493 20.0579 46.4493 19.3978V16.0462C46.4493 15.386 45.9141 14.8509 45.254 14.8509H38.7501C38.0899 14.8509 37.5548 15.3861 37.5548 16.0462V19.3978C37.5509 20.058 38.086 20.5931 38.7501 20.5931ZM17.9021 20.5931H25.6013V16.0462C25.6013 15.386 25.0661 14.8509 24.406 14.8509H17.9021C17.2419 14.8509 16.7068 15.3861 16.7068 16.0462V19.3978C16.7029 20.058 17.238 20.5931 17.9021 20.5931ZM27.6013 37.5661V59.9291C27.6013 60.5893 28.1365 61.1244 28.7966 61.1244H34.3513C35.0115 61.1244 35.5466 60.5892 35.5466 59.9291V6.0421C35.5466 5.83116 35.4919 5.62413 35.3864 5.44054L32.6091 0.655335C32.1482 -0.137635 30.9997 -0.137635 30.5388 0.655335L27.7576 5.44054C27.6522 5.62413 27.5975 5.83116 27.5975 6.0421V22.5971L27.6013 37.5661ZM13.5073 61.1251C14.1675 61.1251 14.7026 60.5899 14.7026 59.9298V6.0428C14.7026 5.83186 14.6479 5.62483 14.5424 5.44124L11.7651 0.656035C11.3042 -0.136935 10.1557 -0.136935 9.69484 0.656035L6.91754 5.44124C6.81207 5.62483 6.75738 5.83186 6.75738 6.0428V59.9298C6.75738 60.59 7.29254 61.1251 7.95268 61.1251H13.5073ZM16.7026 44.1131C16.7026 44.7733 17.2378 45.3084 17.8979 45.3084H24.4018C25.062 45.3084 25.5971 44.7732 25.5971 44.1131V39.5662H17.8979C17.2377 39.5662 16.7026 40.1014 16.7026 40.7615V44.1131ZM66.0976 20.5931C66.7578 20.5931 67.2929 20.0579 67.2929 19.3978V16.0462C67.2929 15.386 66.7577 14.8509 66.0976 14.8509H59.5937C58.9335 14.8509 58.3984 15.3861 58.3984 16.0462V20.5931H66.0976ZM3.5586 14.8509H1.6953C1.03514 14.8509 0.5 15.3861 0.5 16.0501V19.4017C0.5 20.0619 1.03516 20.597 1.6953 20.597H3.5547C4.21486 20.597 4.75 20.0618 4.75 19.4017V16.0501C4.75391 15.386 4.21875 14.8509 3.5586 14.8509ZM58.3986 44.1129C58.3986 44.7731 58.9338 45.3082 59.5939 45.3082H66.0978C66.758 45.3082 67.2931 44.773 67.2931 44.1129L67.297 40.7613C67.297 40.1011 66.7618 39.566 66.1017 39.566H58.4025L58.3986 44.1129ZM55.2033 61.1249C55.8635 61.1249 56.3986 60.5897 56.3986 59.9296V6.0426C56.3986 5.83166 56.3439 5.62463 56.2384 5.44104L53.4611 0.655835C53.0002 -0.137135 51.8517 -0.137135 51.3908 0.655835L48.6135 5.43704C48.5081 5.62063 48.4534 5.82766 48.4534 6.0386V59.9256C48.4534 60.5858 48.9885 61.1209 49.6487 61.1209L55.2033 61.1249Z" fill="black"/>
</svg>
