<svg width="82" height="84" viewBox="0 0 82 84" fill="none" xmlns="http://www.w3.org/2000/svg">
<path d="M4.55506 16.773C0.496459 10.6714 -0.175441 5.70302 2.50036 1.64802C6.69566 4.96052 9.01986 8.37072 9.37146 11.804L4.55506 16.773ZM29.3131 54.402C16.8521 54.402 6.52806 49.7731 2.36406 42.324C-1.21014 35.9334 -0.217942 27.855 5.22346 18.961L11.1219 12.8751C11.3172 12.6759 11.4187 12.4025 11.4031 12.1251C11.1883 8.22282 8.93041 4.42982 4.68431 0.832123C8.97341 0.546963 13.0046 2.89462 16.9503 7.96882C17.2276 8.32429 17.7042 8.4532 18.1222 8.28132C26.216 4.93362 34.2552 5.05862 42.0202 8.64851C42.4421 8.84382 42.9421 8.72273 43.2272 8.35945C47.2741 3.17975 51.7233 0.652453 57.0512 0.519653C51.8715 4.82435 49.7973 8.85555 50.727 12.7967C50.77 12.9763 50.8637 13.1443 50.9926 13.2732L56.641 18.9216C59.0902 24.7693 62.2777 35.6286 56.8481 43.9296C52.4106 50.7069 43.1451 54.23 29.3131 54.402ZM40.8481 26.746C40.8481 26.8281 40.8637 26.9062 40.8637 26.9921C41.3676 26.039 42.4379 25.4765 43.5551 25.6835C44.9301 25.9413 45.8324 27.2616 45.5746 28.6366C45.3168 30.0116 43.9965 30.9139 42.6215 30.6561C42.3871 30.6131 42.1762 30.5272 41.973 30.4296C42.5941 31.2616 43.4222 31.7773 44.3363 31.7773C46.2621 31.7773 47.8246 29.5234 47.8246 26.7461C47.8246 23.9688 46.2621 21.7149 44.3363 21.7149C42.4105 21.7149 40.8481 23.9687 40.8481 26.746ZM19.9531 26.746C19.9531 23.9491 18.3789 21.6796 16.4375 21.6796C14.4961 21.6796 12.9219 23.9491 12.9219 26.746C12.9219 26.9023 12.9453 27.0468 12.9531 27.1991C13.4648 26.2656 14.5234 25.7147 15.6289 25.9218C17 26.1797 17.9062 27.4999 17.6484 28.8749C17.3906 30.2499 16.0703 31.1522 14.6953 30.8944C14.5703 30.871 14.4492 30.828 14.332 30.789C14.918 31.4257 15.6406 31.8163 16.4336 31.8163C18.3828 31.8124 19.9531 29.5429 19.9531 26.746ZM28.6836 46.699C29.2421 46.742 29.8359 46.7654 30.4492 46.7654C34.0508 46.7654 38.3554 45.9451 40.6442 43.5545C42.4684 41.7225 42.8278 38.8162 41.609 35.7733C40.1402 32.1014 36.1285 28.0936 30.789 27.9647C26.6288 27.8671 22.7382 30.0741 20.594 33.7303C18.762 36.8553 18.594 40.4373 20.1956 43.1365C21.5394 45.0857 24.6367 46.3826 28.6836 46.699ZM15.1246 80.961C15.2886 81.586 15.8667 82.0391 16.5308 82.0626L23.437 82.3048C24.2182 82.297 24.8706 81.7775 24.98 81.0157L25.1987 79.5118L14.6597 79.0313C14.812 79.6759 14.9605 80.3282 15.1246 80.961ZM28.8356 44.707C25.4918 44.4453 22.8122 43.4101 21.8747 42.0586C20.6833 40.043 20.8513 37.2422 22.3161 34.7422C24.0778 31.7344 27.1247 29.961 30.4997 29.961C30.5778 29.961 30.6559 29.961 30.734 29.9649C35.1715 30.0743 38.5152 33.4376 39.7496 36.5157C40.6637 38.7969 40.4645 40.9063 39.2184 42.1485C39.2106 42.1563 39.2067 42.1602 39.2028 42.1642C37.4528 44.004 33.1948 45.0468 28.8356 44.707ZM32.7379 38.082C32.7379 39.2265 33.3863 40.1562 34.1832 40.1562C34.9839 40.1562 35.6285 39.2265 35.6285 38.082C35.6285 36.9375 34.98 36.0078 34.1832 36.0078C33.3863 36.0078 32.7379 36.9375 32.7379 38.082ZM28.3473 38.1797C28.3473 37.0352 27.6988 36.1055 26.902 36.1055C26.1012 36.1055 25.4567 37.0352 25.4567 38.1797C25.4567 39.3242 26.1051 40.2539 26.902 40.2539C27.6988 40.2539 28.3473 39.3242 28.3473 38.1797ZM38.2692 81.8557C38.2613 82.258 38.4098 82.6369 38.691 82.9299C38.9723 83.2189 39.3473 83.383 39.7496 83.3908L46.3082 83.5002C47.1207 83.508 47.7613 82.9143 47.8355 82.1369L47.9449 80.9689L38.2847 80.9103L38.2692 81.8557ZM78.0502 44.4297C78.4916 46.1328 78.7689 47.9961 78.8939 50.0156C81.4525 46.8476 82.2728 43.0429 81.3666 38.3246C80.8002 40.4496 79.808 42.6328 78.0502 44.4297ZM76.101 44.875C75.8978 44.6484 75.8275 44.3555 75.8666 44.0742C75.4018 42.5547 74.808 41.164 74.058 39.918C71.5932 35.8477 67.5658 33.3282 61.792 32.2032C61.9326 36.5118 61.1357 41.0118 58.5147 45.0192C53.6944 52.3903 43.8737 56.2222 29.3237 56.4022C22.7651 56.4022 16.7537 55.16 11.8077 52.9217C11.96 62.1287 12.7491 70.0627 14.2061 77.0077L25.4871 77.5233L26.0027 73.9764C26.0457 73.6796 26.2215 73.4139 26.4832 73.2616C26.741 73.1053 27.0574 73.078 27.3426 73.1835C30.1864 74.2421 33.3738 74.1132 37.077 72.7929C37.3855 72.6835 37.7293 72.7304 37.9949 72.9218C38.2606 73.1132 38.4168 73.4218 38.4129 73.7538L38.3191 78.914L48.1316 78.9726L48.7684 72.289C48.8191 71.7577 49.2879 71.3515 49.8153 71.3827C54.4637 71.6288 58.2762 70.1835 61.6863 68.5819C61.991 68.4374 62.3542 68.4608 62.6433 68.6405C62.9324 68.8202 63.1081 69.1366 63.112 69.4765L63.2292 78.3984L72.1237 78.457C76.7721 63.082 78.069 52.34 76.1159 44.891C76.1159 44.8832 76.1088 44.8828 76.101 44.875ZM61.265 80.926L56.472 80.6369L56.4524 80.7815C56.3977 81.1838 56.5071 81.5783 56.7649 81.8909C57.0227 82.2034 57.386 82.3909 57.7922 82.4143L61.386 82.6291C61.3235 82.3713 61.2806 82.1096 61.2766 81.8362L61.265 80.926ZM57.6009 72.3596L56.7415 78.6487L61.2376 78.9221L61.136 71.0315C60.0071 71.5237 58.8353 71.9807 57.6009 72.3596ZM63.2767 81.8049C63.2806 82.2111 63.4446 82.5861 63.7376 82.8674C64.0267 83.1486 64.4095 83.2893 64.8157 83.2893L69.5735 83.1877C70.218 83.1721 70.7844 82.7541 70.9797 82.1408C71.1672 81.5627 71.3313 81.0119 71.507 80.4455L63.257 80.3908L63.2767 81.8049ZM52.6127 12.0629L57.3822 16.8324C60.2845 12.7113 60.89 7.60969 59.2338 1.31639C54.1674 5.26559 51.9955 8.79349 52.6127 12.0629Z" fill="black"/>
</svg>
