<svg width="64" height="80" viewBox="0 0 64 80" fill="none" xmlns="http://www.w3.org/2000/svg">
<path d="M0.809082 15.879C0.809082 17.0392 1.75049 17.9884 2.91848 17.9884H61.0785C62.2387 17.9884 63.1879 17.0392 63.1879 15.879V14.5392C63.1879 13.379 62.2387 12.4298 61.0785 12.4298H2.92248C1.75058 12.4298 0.813082 13.379 0.813082 14.5392V15.879H0.809082Z" fill="black"/>
<path d="M45.8521 10.371V5.47258C45.8521 2.45308 43.4029 0.00378418 40.3833 0.00378418H23.6133C20.5938 0.00378418 18.1328 2.45298 18.1328 5.47258V10.371H20.1836V5.47258C20.1836 3.59368 21.7227 2.05068 23.6133 2.05068H40.3833C42.2739 2.05068 43.8052 3.58978 43.8052 5.47258V10.371H45.856H45.8521Z" fill="black"/>
<path d="M5.92188 20.039L10.8125 77.461C10.9336 78.9102 12.1328 80.0001 13.5937 80.0001H50.4027C51.8636 80.0001 53.0511 78.8985 53.1722 77.461L58.0706 20.039H5.92188ZM20.5199 71.672H20.4613C19.9222 71.672 19.473 71.2501 19.4301 70.7111L17.2504 29.4491C17.2191 28.8905 17.6605 28.3983 18.2191 28.371C18.7582 28.3397 19.2699 28.7694 19.2972 29.3319L21.4769 70.5939C21.5082 71.1525 21.0785 71.6447 20.516 71.672H20.5199ZM33.0199 70.6486C33.0199 71.2189 32.5707 71.6798 31.9887 71.6798C31.4106 71.6798 30.9575 71.2306 30.9575 70.6486V29.3986C30.9575 28.8283 31.4184 28.3674 31.9887 28.3674C32.559 28.3674 33.0199 28.8166 33.0199 29.3986V70.6486ZM44.5589 70.7111C44.5393 71.2502 44.0784 71.672 43.5394 71.672H43.4808C42.9222 71.6408 42.4925 71.1603 42.5198 70.5939L44.6995 29.3319C44.7308 28.7734 45.1995 28.3319 45.7776 28.371C46.3362 28.4023 46.7893 28.8827 46.7464 29.4491L44.555 70.7111H44.5589Z" fill="black"/>
</svg>
