<svg width="76" height="44" viewBox="0 0 76 44" fill="none" xmlns="http://www.w3.org/2000/svg">
<path d="M71.3102 5.82299C72.1692 5.82299 72.8672 6.54199 72.8672 7.42699C72.8672 8.31799 72.1682 9.03599 71.3102 9.03599C70.4502 9.03599 69.7532 8.31699 69.7532 7.42699C69.7522 6.54199 70.4502 5.82299 71.3102 5.82299ZM68.7782 0.369995C65.6072 0.369995 63.0592 1.79299 61.2532 4.00099C59.9362 5.60999 58.9252 7.578 58.6282 9.818C58.3792 11.703 59.2642 12.709 58.7372 14.626C58.7372 14.626 56.2782 22.558 48.6692 27.881C42.9662 32.22 31.9362 35.193 16.5922 31.032C12.2232 29.845 8.94516 28.683 4.81616 26.949C3.14916 28.282 1.56516 29.98 0.327162 32.381C-0.147838 33.293 0.727162 33.548 1.48316 33.094C3.27016 32.037 5.35816 31.531 7.53016 31.687C7.11316 32.948 6.80616 34.334 6.61316 35.739C6.35816 37.682 6.41016 39.594 6.48916 41.244C6.55216 42.677 6.81216 42.963 8.03016 43.276C9.94616 43.771 13.5612 43.677 15.5252 43.38C17.4622 43.088 17.1132 41.801 16.8012 40.339C16.3062 38.031 15.9842 36.391 17.0002 34.708C21.6132 36.161 27.1672 36.572 32.7282 36.432C38.4842 36.287 45.0042 34.344 49.9522 31.577C50.7652 34.614 50.7762 37.338 49.9572 40.145C49.3902 42.088 49.6132 42.905 51.7802 43.202C53.2852 43.41 54.9522 43.39 56.5832 43.238C58.5942 43.051 59.9162 42.119 60.4632 40.489C62.3542 34.864 60.1922 29.421 58.6302 26.708C57.8862 25.416 57.8652 23.864 58.5992 22.625C59.3342 21.385 60.8072 20.514 62.7762 20.448C65.6402 20.348 68.3432 19.281 70.2912 17.844C71.3072 17.099 72.1402 16.276 72.6192 15.421C73.2502 14.292 72.7912 14.109 71.8802 14.109C70.7492 14.109 69.7802 13.401 70.6612 13.156C72.7442 12.635 74.7182 12.552 75.5722 10.301C76.0472 9.04099 75.7242 6.19699 74.6512 4.10399C73.5752 2.01099 71.7782 0.369995 68.7782 0.369995Z" fill="black"/>
<path d="M33.7988 1.19198C39.7218 1.34398 44.0118 3.79198 47.0068 6.44798C47.4398 6.83898 47.8398 7.22398 48.2158 7.60398C47.2248 9.55198 45.3768 11.615 43.4548 13.255C39.0588 17.276 39.0908 15.187 35.3668 13.271C32.7778 11.938 32.5278 11.984 32.5278 9.00598V1.19798C32.9598 1.18698 33.3878 1.18198 33.7988 1.19198Z" fill="black"/>
<path d="M30.9982 1.29199V9.16099C30.9982 11.874 29.1902 12.661 26.9142 14.129C24.5022 15.681 22.7582 15.568 20.5022 13.718C18.7692 12.291 17.1112 10.437 16.1272 8.43099C16.0592 8.28599 15.9502 8.16599 15.8042 8.08699C19.1322 5.03499 23.5912 2.37399 29.4402 1.48299C29.9712 1.40199 30.4872 1.33899 30.9982 1.29199Z" fill="black"/>
<path d="M49.3149 8.81201C50.1739 9.81701 50.7679 10.781 51.2679 11.479C52.2679 12.854 52.0279 13.578 51.4549 14.76C50.5119 16.703 48.4499 19.937 44.2579 22.427C41.7689 23.906 40.4869 22.875 40.3929 21.104C40.2319 18 40.6899 17.208 42.1599 16.197C42.9039 15.681 43.6799 15.077 44.4559 14.416C46.3309 12.818 48.1479 10.87 49.3149 8.81201Z" fill="black"/>
<path d="M14.7522 9.12C15.8672 11.396 17.6682 13.375 19.5172 14.905C23.3922 17.572 23.6892 17.89 23.1642 20.844C22.7682 23.041 21.2412 24.719 19.3202 24.224C16.3092 23.448 13.0232 22.416 9.40822 21.125C7.96022 20.609 7.63221 19.896 8.37721 18.312C9.43021 16.088 11.4612 12.463 14.7522 9.12Z" fill="black"/>
<path d="M55.4442 12.178C55.6592 12.187 55.8772 12.23 56.0852 12.297C56.9132 12.573 57.4762 13.24 57.2522 14.209C57.2312 14.272 54.6642 22.449 46.6272 27.392C38.5552 32.36 25.4142 34.141 4.84623 25.303C4.17423 25.012 3.86723 24.595 3.71123 24.106C3.55923 23.617 3.60223 23.027 3.80423 22.513C4.00723 22.002 4.36723 21.59 4.73623 21.404C4.98123 21.279 5.23123 21.227 5.52823 21.299L6.09123 21.528C26.1592 29.856 38.1222 27.929 45.0442 23.757C51.7522 19.71 53.6012 13.684 53.7162 13.304C54.1592 12.463 54.8042 12.162 55.4442 12.178Z" fill="black"/>
<path d="M31.7632 13.916C37.5442 13.916 39.6842 19.547 38.9922 24.677C35.2682 25.744 30.5282 26.125 24.5392 25.249C24.5392 25.218 24.5392 25.186 24.5342 25.156C23.5862 19.026 26.7782 13.916 31.7632 13.916Z" fill="black"/>
</svg>
