<svg width="54" height="80" viewBox="0 0 54 80" fill="none" xmlns="http://www.w3.org/2000/svg">
<path d="M27 -6.10352e-05C41.0221 15.4634 54 33.8148 54 50.25C54 66.6854 41.9032 80 27 80C12.0969 80 0 66.6854 0 50.25C0 33.8148 12.9783 15.4634 27 -6.10352e-05ZM45.1875 46.9062C44.8853 46.866 44.5778 46.8954 44.2887 46.9922C43.9995 47.0891 43.7364 47.2507 43.5193 47.4648C43.3022 47.6789 43.1369 47.9397 43.0361 48.2275C42.9352 48.5152 42.9015 48.8222 42.9375 49.125C43.4666 54.8326 40.0088 62.4042 35.9375 65.2812C35.709 65.4254 35.5121 65.6144 35.3586 65.8368C35.2051 66.0592 35.0983 66.3103 35.0445 66.5751C34.9908 66.8399 34.9913 67.1128 35.0459 67.3774C35.1006 67.6421 35.2083 67.8928 35.3625 68.1146C35.5167 68.3365 35.7143 68.5248 35.9433 68.6682C36.1723 68.8116 36.428 68.9071 36.695 68.949C36.9619 68.9908 37.2345 68.9782 37.4964 68.9117C37.7583 68.8453 38.0041 68.7265 38.2188 68.5625C43.9081 64.5421 47.6274 56.1926 46.9375 48.75C46.9047 48.2875 46.7123 47.8507 46.3931 47.5143C46.0739 47.178 45.6477 46.963 45.1875 46.9062Z" fill="black"/>
</svg>
